<mxfile host="Electron" agent="Mozilla/5.0 (X11; Linux x86_64) AppleWebKit/537.36 (KHTML, like Gecko) draw.io/26.0.3 Chrome/130.0.6723.137 Electron/33.2.1 Safari/537.36" version="26.0.3">
  <diagram name="Page-1" id="QaaNRkdTFzj3QSEMWY4U">
    <mxGraphModel dx="576" dy="334" grid="1" gridSize="10" guides="1" tooltips="1" connect="1" arrows="1" fold="1" page="1" pageScale="1" pageWidth="827" pageHeight="1169" math="0" shadow="0">
      <root>
        <mxCell id="0" />
        <mxCell id="1" parent="0" />
        <mxCell id="c7CVHGiVmJgYd2n3JN1E-3" value="Source" style="rounded=0;whiteSpace=wrap;html=1;fillColor=#dae8fc;strokeColor=#6c8ebf;verticalAlign=bottom;labelPosition=center;verticalLabelPosition=top;align=center;" parent="1" vertex="1">
          <mxGeometry x="110" y="19" width="90" height="51" as="geometry" />
        </mxCell>
        <mxCell id="c7CVHGiVmJgYd2n3JN1E-6" value="periodic&lt;div&gt;timer&lt;/div&gt;" style="html=1;verticalLabelPosition=bottom;align=center;labelBackgroundColor=#ffffff;verticalAlign=top;strokeWidth=2;strokeColor=#000000;shadow=0;dashed=0;shape=mxgraph.ios7.icons.alarm_clock;fontSize=10;" parent="1" vertex="1">
          <mxGeometry x="20" y="27.75" width="27" height="30" as="geometry" />
        </mxCell>
        <mxCell id="c7CVHGiVmJgYd2n3JN1E-9" value="buffer" style="rounded=1;whiteSpace=wrap;html=1;verticalAlign=bottom;labelPosition=center;verticalLabelPosition=top;align=left;" parent="1" vertex="1">
          <mxGeometry x="255" y="27.75" width="100" height="30" as="geometry" />
        </mxCell>
        <mxCell id="c7CVHGiVmJgYd2n3JN1E-10" value="" style="rounded=0;whiteSpace=wrap;html=1;" parent="1" vertex="1">
          <mxGeometry x="265" y="32.75" width="20" height="20" as="geometry" />
        </mxCell>
        <mxCell id="c7CVHGiVmJgYd2n3JN1E-11" value="0" style="rounded=0;whiteSpace=wrap;html=1;fillColor=#fa6800;strokeColor=#C73500;fontColor=#000000;labelPosition=center;verticalLabelPosition=middle;align=center;verticalAlign=middle;" parent="1" vertex="1">
          <mxGeometry x="295" y="32.75" width="20" height="20" as="geometry" />
        </mxCell>
        <mxCell id="c7CVHGiVmJgYd2n3JN1E-12" value="" style="endArrow=classic;html=1;rounded=0;curved=1;fillColor=#fa6800;strokeColor=#C73500;flowAnimation=0;exitX=0.778;exitY=0.804;exitDx=0;exitDy=0;exitPerimeter=0;" parent="1" source="c7CVHGiVmJgYd2n3JN1E-3" edge="1">
          <mxGeometry width="50" height="50" relative="1" as="geometry">
            <mxPoint x="134.5300000000001" y="58.00399999999996" as="sourcePoint" />
            <mxPoint x="303" y="54" as="targetPoint" />
            <Array as="points">
              <mxPoint x="240" y="90" />
            </Array>
          </mxGeometry>
        </mxCell>
        <mxCell id="c7CVHGiVmJgYd2n3JN1E-13" value="" style="endArrow=classic;html=1;rounded=0;" parent="1" edge="1">
          <mxGeometry width="50" height="50" relative="1" as="geometry">
            <mxPoint x="54" y="43" as="sourcePoint" />
            <mxPoint x="104" y="43" as="targetPoint" />
          </mxGeometry>
        </mxCell>
        <mxCell id="c7CVHGiVmJgYd2n3JN1E-15" value="triggers" style="edgeLabel;html=1;align=center;verticalAlign=middle;resizable=0;points=[];fontSize=8;" parent="c7CVHGiVmJgYd2n3JN1E-13" vertex="1" connectable="0">
          <mxGeometry x="0.12" y="-1" relative="1" as="geometry">
            <mxPoint x="-5" y="-9" as="offset" />
          </mxGeometry>
        </mxCell>
        <mxCell id="c7CVHGiVmJgYd2n3JN1E-19" value="" style="verticalLabelPosition=bottom;verticalAlign=top;html=1;shape=mxgraph.basic.flash" parent="1" vertex="1">
          <mxGeometry x="57" y="29" width="5" height="10" as="geometry" />
        </mxCell>
        <mxCell id="c7CVHGiVmJgYd2n3JN1E-22" value="counter = 0" style="rounded=0;whiteSpace=wrap;html=1;fillColor=#1ba1e2;fontColor=#ffffff;strokeColor=#006EAF;" parent="1" vertex="1">
          <mxGeometry x="119" y="32.75" width="73" height="20" as="geometry" />
        </mxCell>
        <mxCell id="c7CVHGiVmJgYd2n3JN1E-26" value="" style="rounded=0;whiteSpace=wrap;html=1;fillColor=#dae8fc;strokeColor=#6c8ebf;verticalAlign=bottom;labelPosition=center;verticalLabelPosition=top;align=center;" parent="1" vertex="1">
          <mxGeometry x="110" y="99" width="90" height="51" as="geometry" />
        </mxCell>
        <mxCell id="c7CVHGiVmJgYd2n3JN1E-27" value="" style="html=1;verticalLabelPosition=bottom;align=center;labelBackgroundColor=#ffffff;verticalAlign=top;strokeWidth=2;strokeColor=#000000;shadow=0;dashed=0;shape=mxgraph.ios7.icons.alarm_clock;fontSize=10;" parent="1" vertex="1">
          <mxGeometry x="20" y="107.75" width="27" height="30" as="geometry" />
        </mxCell>
        <mxCell id="c7CVHGiVmJgYd2n3JN1E-28" value="" style="rounded=1;whiteSpace=wrap;html=1;verticalAlign=bottom;labelPosition=center;verticalLabelPosition=top;align=left;" parent="1" vertex="1">
          <mxGeometry x="255" y="107.75" width="100" height="30" as="geometry" />
        </mxCell>
        <mxCell id="c7CVHGiVmJgYd2n3JN1E-29" value="" style="rounded=0;whiteSpace=wrap;html=1;" parent="1" vertex="1">
          <mxGeometry x="265" y="112.75" width="20" height="20" as="geometry" />
        </mxCell>
        <mxCell id="c7CVHGiVmJgYd2n3JN1E-30" value="1" style="rounded=0;whiteSpace=wrap;html=1;fillColor=#fa6800;strokeColor=#C73500;fontColor=#000000;labelPosition=center;verticalLabelPosition=middle;align=center;verticalAlign=middle;" parent="1" vertex="1">
          <mxGeometry x="295" y="112.75" width="20" height="20" as="geometry" />
        </mxCell>
        <mxCell id="c7CVHGiVmJgYd2n3JN1E-31" value="" style="endArrow=classic;html=1;rounded=0;curved=1;fillColor=#fa6800;strokeColor=#C73500;flowAnimation=0;exitX=0.778;exitY=0.804;exitDx=0;exitDy=0;exitPerimeter=0;" parent="1" source="c7CVHGiVmJgYd2n3JN1E-26" edge="1">
          <mxGeometry width="50" height="50" relative="1" as="geometry">
            <mxPoint x="134.5300000000001" y="138.00399999999996" as="sourcePoint" />
            <mxPoint x="303" y="134" as="targetPoint" />
            <Array as="points">
              <mxPoint x="240" y="170" />
            </Array>
          </mxGeometry>
        </mxCell>
        <mxCell id="c7CVHGiVmJgYd2n3JN1E-32" value="" style="endArrow=classic;html=1;rounded=0;" parent="1" edge="1">
          <mxGeometry width="50" height="50" relative="1" as="geometry">
            <mxPoint x="54" y="123" as="sourcePoint" />
            <mxPoint x="104" y="123" as="targetPoint" />
          </mxGeometry>
        </mxCell>
        <mxCell id="c7CVHGiVmJgYd2n3JN1E-33" value="triggers&lt;br&gt;again" style="edgeLabel;html=1;align=center;verticalAlign=middle;resizable=0;points=[];fontSize=8;" parent="c7CVHGiVmJgYd2n3JN1E-32" vertex="1" connectable="0">
          <mxGeometry x="0.12" y="-1" relative="1" as="geometry">
            <mxPoint x="-5" y="-9" as="offset" />
          </mxGeometry>
        </mxCell>
        <mxCell id="c7CVHGiVmJgYd2n3JN1E-34" value="" style="verticalLabelPosition=bottom;verticalAlign=top;html=1;shape=mxgraph.basic.flash" parent="1" vertex="1">
          <mxGeometry x="57" y="109" width="5" height="10" as="geometry" />
        </mxCell>
        <mxCell id="c7CVHGiVmJgYd2n3JN1E-35" value="counter = 1" style="rounded=0;whiteSpace=wrap;html=1;fillColor=#1ba1e2;fontColor=#ffffff;strokeColor=#006EAF;" parent="1" vertex="1">
          <mxGeometry x="119" y="112.75" width="73" height="20" as="geometry" />
        </mxCell>
        <mxCell id="c7CVHGiVmJgYd2n3JN1E-38" value="M" style="ellipse;whiteSpace=wrap;html=1;aspect=fixed;fontSize=10;strokeWidth=1;spacing=0;verticalAlign=middle;fillColor=#e1d5e7;strokeColor=#9673a6;" parent="1" vertex="1">
          <mxGeometry x="308" y="125.75" width="15" height="15" as="geometry" />
        </mxCell>
        <mxCell id="c7CVHGiVmJgYd2n3JN1E-39" value="M" style="ellipse;whiteSpace=wrap;html=1;aspect=fixed;fontSize=10;strokeWidth=1;spacing=0;verticalAlign=middle;fillColor=#e1d5e7;strokeColor=#9673a6;" parent="1" vertex="1">
          <mxGeometry x="308" y="45.75" width="15" height="15" as="geometry" />
        </mxCell>
      </root>
    </mxGraphModel>
  </diagram>
</mxfile>
